Akali Rajyam (1991) DvdRip Telugu Movie - teluguppls




General

Format                           : AVI
File size                        : 698 MiB
Duration                         : 2h 0mn
Overall bit rate                 : 810 Kbps


Video

Format                           : MPEG-4 Visual
Codec ID                         : XVID
Duration                         : 2h 0mn
Bit rate                         : 676 Kbps
Width                            : 512 pixels
Height                           : 384 pixels
Display aspect ratio             : 4:3
Frame rate                       : 29.970 fps
Color space                      : YUV
Chroma subsampling               : 4:2:0
Bit depth                        : 8 bits
Scan type                        : Progressive
Compression mode                 : Lossy
Bits/(Pixel*Frame)               : 0.115
Stream size                      : 583 MiB (83%)


Audio

Format                           : MPEG Audio
Mode                             : Joint stereo
Mode extension                   : MS Stereo
Codec ID                         : 55
Codec ID/Hint                    : MP3
Duration                         : 2h 0mn
Bit rate mode                    : Variable
Bit rate                         : 120 Kbps
Nominal bit rate                 : 128 Kbps
Channel(s)                       : 2 channels
Sampling rate                    : 48.0 KHz
Compression mode                 : Lossy
Stream size                      : 103 MiB (15%)
Alignment                        : Aligned on interleaves
Interleave, duration             : 24 ms (0.72 video frame)
Interleave, preload duration     : 490 ms


PLEASE SEEDDDDD.......................

POST A COMMENT.......................